<svg width="174" height="26" viewBox="0 0 174 26" fill="none" xmlns="http://www.w3.org/2000/svg">
<g clip-path="url(#clip0_1_8)">
<path d="M20.1369 26C22.8983 26 25.1842 23.7425 24.6732 21.0288C24.3528 19.3274 23.8679 17.6594 23.2235 16.0502C21.9602 12.8958 20.1087 10.0295 17.7745 7.61522C15.4403 5.2009 12.6692 3.28575 9.61949 1.97913C8.11383 1.33406 6.55481 0.843537 4.96489 0.512195C2.26154 -0.0511833 0 2.23858 0 5V21C0 23.7614 2.23858 26 5 26H20.1369Z" fill="#293C78"/>
<g style="mix-blend-mode:multiply">
<path d="M13.7013 26C10.9399 26 8.65396 23.7425 9.16503 21.0288C9.48545 19.3274 9.97032 17.6594 10.6147 16.0502C11.878 12.8958 13.7295 10.0295 16.0637 7.61522C18.3979 5.2009 21.169 3.28575 24.2187 1.97913C25.7244 1.33406 27.2834 0.843537 28.8733 0.512195C31.5767 -0.0511833 33.8382 2.23858 33.8382 5V21C33.8382 23.7614 31.5996 26 28.8382 26H13.7013Z" fill="#ACC439"/>
</g>
<path d="M44.3906 22V6H50.7031C51.9167 6 52.9505 6.23177 53.8047 6.69531C54.6589 7.15365 55.3099 7.79167 55.7578 8.60937C56.2109 9.42187 56.4375 10.3594 56.4375 11.4219C56.4375 12.4844 56.2083 13.4219 55.75 14.2344C55.2917 15.0469 54.6276 15.6797 53.7578 16.1328C52.8932 16.5859 51.8464 16.8125 50.6172 16.8125H46.5938V14.1016H50.0703C50.7214 14.1016 51.2578 13.9896 51.6797 13.7656C52.1068 13.5365 52.4245 13.2214 52.6328 12.8203C52.8464 12.4141 52.9531 11.9479 52.9531 11.4219C52.9531 10.8906 52.8464 10.4271 52.6328 10.0312C52.4245 9.63021 52.1068 9.32031 51.6797 9.10156C51.2526 8.8776 50.7109 8.76562 50.0547 8.76562H47.7734V22H44.3906ZM63.8008 22.2344C62.5872 22.2344 61.5378 21.9766 60.6523 21.4609C59.7721 20.9401 59.0924 20.2161 58.6133 19.2891C58.1341 18.3568 57.8945 17.276 57.8945 16.0469C57.8945 14.8073 58.1341 13.724 58.6133 12.7969C59.0924 11.8646 59.7721 11.1406 60.6523 10.625C61.5378 10.1042 62.5872 9.84375 63.8008 9.84375C65.0143 9.84375 66.0612 10.1042 66.9414 10.625C67.8268 11.1406 68.5091 11.8646 68.9883 12.7969C69.4674 13.724 69.707 14.8073 69.707 16.0469C69.707 17.276 69.4674 18.3568 68.9883 19.2891C68.5091 20.2161 67.8268 20.9401 66.9414 21.4609C66.0612 21.9766 65.0143 22.2344 63.8008 22.2344ZM63.8164 19.6562C64.3685 19.6562 64.8294 19.5 65.1992 19.1875C65.569 18.8698 65.8477 18.4375 66.0352 17.8906C66.2279 17.3437 66.3242 16.7214 66.3242 16.0234C66.3242 15.3255 66.2279 14.7031 66.0352 14.1562C65.8477 13.6094 65.569 13.1771 65.1992 12.8594C64.8294 12.5417 64.3685 12.3828 63.8164 12.3828C63.2591 12.3828 62.7904 12.5417 62.4102 12.8594C62.0352 13.1771 61.7513 13.6094 61.5586 14.1562C61.3711 14.7031 61.2773 15.3255 61.2773 16.0234C61.2773 16.7214 61.3711 17.3437 61.5586 17.8906C61.7513 18.4375 62.0352 18.8698 62.4102 19.1875C62.7904 19.5 63.2591 19.6562 63.8164 19.6562ZM71.8711 26.5V10H75.1523V12.0156H75.3008C75.4466 11.6927 75.6576 11.3646 75.9336 11.0312C76.2148 10.6927 76.5794 10.4115 77.0273 10.1875C77.4805 9.95833 78.043 9.84375 78.7148 9.84375C79.5898 9.84375 80.3971 10.0729 81.1367 10.5313C81.8763 10.9844 82.4674 11.6693 82.9102 12.5859C83.3529 13.4974 83.5742 14.6406 83.5742 16.0156C83.5742 17.3542 83.3581 18.4844 82.9258 19.4062C82.4987 20.3229 81.9154 21.0182 81.1758 21.4922C80.4414 21.9609 79.6185 22.1953 78.707 22.1953C78.0612 22.1953 77.5117 22.0885 77.0586 21.875C76.6107 21.6615 76.2435 21.3932 75.957 21.0703C75.6706 20.7422 75.4518 20.4115 75.3008 20.0781H75.1992V26.5H71.8711ZM75.1289 16C75.1289 16.7135 75.2279 17.3359 75.4258 17.8672C75.6237 18.3984 75.9102 18.8125 76.2852 19.1094C76.6602 19.401 77.1159 19.5469 77.6523 19.5469C78.194 19.5469 78.6523 19.3984 79.0273 19.1016C79.4023 18.7995 79.6862 18.3828 79.8789 17.8516C80.0768 17.3151 80.1758 16.6979 80.1758 16C80.1758 15.3073 80.0794 14.6979 79.8867 14.1719C79.694 13.6458 79.4102 13.2344 79.0352 12.9375C78.6602 12.6406 78.1992 12.4922 77.6523 12.4922C77.1107 12.4922 76.6523 12.6354 76.2773 12.9219C75.9076 13.2083 75.6237 13.6146 75.4258 14.1406C75.2279 14.6667 75.1289 15.2865 75.1289 16ZM96.9863 16.4375H99.8613L101.307 18.2969L102.729 19.9531L105.408 23.3125H102.252L100.408 21.0469L99.4629 19.7031L96.9863 16.4375ZM105.65 14C105.65 15.7448 105.32 17.2292 104.658 18.4531C104.002 19.6771 103.106 20.612 101.971 21.2578C100.84 21.8984 99.5697 22.2187 98.1582 22.2187C96.7363 22.2187 95.4603 21.8958 94.3301 21.25C93.1999 20.6042 92.3066 19.6693 91.6504 18.4453C90.9941 17.2214 90.666 15.7396 90.666 14C90.666 12.2552 90.9941 10.7708 91.6504 9.54688C92.3066 8.32292 93.1999 7.39062 94.3301 6.75C95.4603 6.10417 96.7363 5.78125 98.1582 5.78125C99.5697 5.78125 100.84 6.10417 101.971 6.75C103.106 7.39062 104.002 8.32292 104.658 9.54688C105.32 10.7708 105.65 12.2552 105.65 14ZM102.221 14C102.221 12.8698 102.051 11.9167 101.713 11.1406C101.38 10.3646 100.908 9.77604 100.299 9.375C99.6895 8.97396 98.9759 8.77344 98.1582 8.77344C97.3405 8.77344 96.627 8.97396 96.0176 9.375C95.4082 9.77604 94.9342 10.3646 94.5957 11.1406C94.2624 11.9167 94.0957 12.8698 94.0957 14C94.0957 15.1302 94.2624 16.0833 94.5957 16.8594C94.9342 17.6354 95.4082 18.224 96.0176 18.625C96.627 19.026 97.3405 19.2266 98.1582 19.2266C98.9759 19.2266 99.6895 19.026 100.299 18.625C100.908 18.224 101.38 17.6354 101.713 16.8594C102.051 16.0833 102.221 15.1302 102.221 14ZM115.789 16.8906V10H119.117V22H115.922V19.8203H115.797C115.526 20.5234 115.076 21.0885 114.445 21.5156C113.82 21.9427 113.057 22.1563 112.156 22.1563C111.354 22.1563 110.648 21.974 110.039 21.6094C109.43 21.2448 108.953 20.7266 108.609 20.0547C108.271 19.3828 108.099 18.5781 108.094 17.6406V10H111.422V17.0469C111.427 17.7552 111.617 18.3151 111.992 18.7266C112.367 19.138 112.87 19.3437 113.5 19.3437C113.901 19.3437 114.276 19.2526 114.625 19.0703C114.974 18.8828 115.255 18.6068 115.469 18.2422C115.688 17.8776 115.794 17.4271 115.789 16.8906ZM121.779 22V10H125.107V22H121.779ZM123.451 8.45312C122.956 8.45312 122.532 8.28906 122.178 7.96094C121.829 7.6276 121.654 7.22917 121.654 6.76562C121.654 6.30729 121.829 5.91406 122.178 5.58594C122.532 5.2526 122.956 5.08594 123.451 5.08594C123.946 5.08594 124.368 5.2526 124.717 5.58594C125.071 5.91406 125.248 6.30729 125.248 6.76562C125.248 7.22917 125.071 7.6276 124.717 7.96094C124.368 8.28906 123.946 8.45312 123.451 8.45312ZM127.711 22V20.0156L133.586 12.7422V12.6562H127.914V10H137.594V12.1641L132.078 19.2578V19.3437H137.797V22H127.711Z" fill="#11142D"/>
</g>
<defs>
<clipPath id="clip0_1_8">
<rect width="174" height="26" fill="white"/>
</clipPath>
</defs>
</svg>
